<svg width="434" height="311" viewBox="0 0 434 311" fill="none" xmlns="http://www.w3.org/2000/svg">
<rect y="35" width="434" height="276" rx="40" fill="#48887B"/>
<rect x="27" y="14" width="47" height="276" rx="8" fill="#48887B"/>
<path d="M142.635 6.95047C146.435 2.53776 151.969 0 157.791 0H274.228C279.782 0 285.085 2.30942 288.869 6.3752L316.057 35.5912C323.31 43.3855 323.185 55.496 315.773 63.1394L288.829 90.9234C285.062 94.8077 279.882 97 274.472 97H157.545C151.865 97 146.452 94.5846 142.659 90.3567L117.74 62.5845C111.026 55.1014 110.91 43.797 117.47 36.1782L142.635 6.95047Z" fill="#48887B"/>
<ellipse cx="215" cy="158.5" rx="75" ry="74.5" fill="#D9D9D9"/>
<ellipse cx="215" cy="158.5" rx="75" ry="74.5" fill="#D9D9D9"/>
<circle cx="47.5" cy="60.5" r="12.5" fill="#D9D9D9"/>
<circle cx="215.5" cy="158.5" r="42.5" fill="#48887B"/>
</svg>
