<?xml version="1.0" encoding="UTF-8"?>
<!DOCTYPE svg PUBLIC "-//W3C//DTD SVG 1.1//EN" "http://www.w3.org/Graphics/SVG/1.1/DTD/svg11.dtd">
<!-- Creator: CorelDRAW -->
<svg xmlns="http://www.w3.org/2000/svg" xml:space="preserve" width="150mm" height="150mm" version="1.1" style="shape-rendering:geometricPrecision; text-rendering:geometricPrecision; image-rendering:optimizeQuality; fill-rule:evenodd; clip-rule:evenodd"
viewBox="0 0 15000 15000"
 xmlns:xlink="http://www.w3.org/1999/xlink"
 xmlns:xodm="http://www.corel.com/coreldraw/odm/2003">
 <defs>
  <style type="text/css">
   <![CDATA[
    .str0 {stroke:#48887B;stroke-width:20;stroke-miterlimit:22.9256}
    .fil0 {fill:#48887B;fill-rule:nonzero}
   ]]>
  </style>
 </defs>
 <g id="Слой_x0020_1">
  <metadata id="CorelCorpID_0Corel-Layer"/>
  <g id="_1966551328896">
   <path class="fil0 str0" d="M6249.84 518.72c-1969.82,347.07 -3709.82,1524.27 -4807.29,3245.51 -1074.02,1688.42 -1346.04,3958.39 -708.19,5900.07 121.94,365.83 609.7,1482.05 694.12,1580.54 4.7,4.69 332.99,42.21 731.65,84.42 398.65,42.21 1172.5,126.63 1711.86,187.6 544.04,65.66 1397.64,159.46 1899.47,211.05 745.72,79.73 928.63,112.57 1008.36,187.6 332.99,314.24 1120.92,314.24 1453.91,0 79.73,-75.03 361.13,-117.24 1829.11,-276.71 956.77,-103.18 2073,-225.12 2485.72,-262.65 1144.37,-112.56 1003.66,-37.52 1303.83,-670.67 539.35,-1130.3 755.09,-2054.24 750.4,-3268.96 0,-1880.71 -708.19,-3583.19 -2054.24,-4924.55 -1069.33,-1074.02 -2485.72,-1800.98 -3920.88,-2012.03 -670.67,-98.49 -1754.07,-93.81 -2377.84,18.76l0.01 0.02zm2499.79 304.86c1322.58,239.2 2598.28,914.57 3587.88,1899.47 952.08,952.08 1557.09,2077.7 1857.25,3470.64 70.36,314.23 89.12,595.64 89.12,1313.21 -4.69,820.76 -18.76,970.84 -126.63,1435.16 -136.02,576.88 -422.11,1346.03 -661.3,1777.52l-159.46 281.41 -558.12 60.97c-633.16,65.66 -2532.62,286.09 -3808.32,440.86 -806.69,93.81 -867.66,112.57 -994.29,229.81 -243.88,234.51 -694.13,220.44 -989.6,-23.45 -103.18,-84.42 -257.95,-117.24 -1008.35,-211.05 -487.77,-56.28 -1308.53,-159.46 -1824.44,-220.44 -515.91,-65.66 -1285.07,-150.08 -1711.86,-196.98l-773.86 -79.73 -196.98 -375.2c-257.96,-492.46 -464.32,-1050.57 -614.4,-1688.42 -112.56,-464.31 -121.94,-609.7 -126.63,-1430.46 0,-994.29 46.9,-1308.52 309.54,-2138.66 520.59,-1641.51 1810.35,-3128.26 3395.59,-3925.57 717.57,-356.44 1392.94,-558.12 2391.92,-708.19 286.09,-42.21 1514.88,14.07 1922.92,89.12l0.02 -0.02z"/>
   <path class="fil0 str0" d="M7248.81 2239.98c-769.17,103.18 -1510.19,562.8 -1941.68,1214.71 -337.68,501.83 -450.25,895.81 -445.55,1519.58 9.38,825.45 290.78,1486.75 867.66,2049.55 891.11,858.27 2209,1031.8 3268.95,431.49 356.45,-201.67 853.6,-708.19 1017.75,-1027.12l126.63 -253.26 -243.88 220.44c-459.62,417.41 -1219.41,680.06 -1758.77,614.39 -637.85,-79.72 -1050.57,-272.02 -1477.36,-694.12 -1346.04,-1322.59 -769.17,-3503.46 1045.87,-3963.08 304.86,-79.73 314.23,-84.42 173.54,-117.25 -154.78,-28.14 -384.59,-28.14 -633.16,4.69l0 -0.02z"/>
   <path class="fil0 str0" d="M8350.97 4059.72l-107.87 347.07 -398.65 14.06 -398.65 14.07 300.16 206.36c164.15,117.24 309.54,215.74 318.93,220.43 9.38,9.39 -28.15,159.46 -84.42,342.38 -51.6,178.23 -98.49,337.68 -98.49,356.44 0,18.76 131.32,-60.97 295.47,-178.23l295.47 -211.05 290.78 206.36c159.46,112.57 290.78,187.6 290.78,164.15 0,-23.45 -42.21,-182.91 -98.48,-356.44 -51.6,-173.54 -89.12,-318.93 -79.73,-323.62 9.39,-9.39 150.08,-103.18 314.23,-220.44l300.17 -206.36 -389.28 -23.45 -389.28 -23.45 -107.87 -323.62c-60.97,-178.22 -117.25,-332.99 -126.64,-337.68 -9.38,-9.39 -65.66,140.7 -126.63,332.99l0 0.03z"/>
   <path class="fil0 str0" d="M3435.81 7586.62c-32.82,126.63 -136.02,529.97 -239.2,905.17 -103.18,375.2 -182.9,680.06 -178.22,684.76 4.69,0 314.23,75.03 689.43,164.14 1336.66,328.3 2199.63,764.48 3297.1,1674.35l361.14 300.17 0 -1102.16 0 -1102.17 -243.88 -220.43c-741.03,-651.92 -1899.47,-1200.65 -3020.39,-1430.46 -619.09,-126.64 -605.01,-131.33 -665.98,126.63z"/>
   <path class="fil0 str0" d="M10860.14 7483.44c-257.95,56.27 -637.84,164.15 -844.2,234.5 -745.72,248.57 -1730.63,806.69 -2166.8,1219.41l-201.66 196.99 0 1116.22 0 1120.93 225.11 -215.75c576.88,-562.8 1449.22,-1106.86 2307.51,-1449.22 492.46,-192.29 1458.6,-464.31 1664.96,-464.31 60.97,0 126.63,-18.76 140.7,-46.91 28.14,-46.9 -234.5,-1153.74 -379.89,-1608.68 -84.43,-262.65 -79.73,-257.96 -745.73,-103.18z"/>
   <path class="fil0 str0" d="M2708.85 7914.93c-18.76,32.82 -178.23,525.28 -689.43,2157.42 -98.49,314.23 -192.3,595.64 -211.06,623.77 -14.06,23.45 9.39,46.9 56.28,46.9 46.9,0 389.28,23.45 764.48,51.6 1238.17,84.42 2682.71,309.54 3888.05,600.33 220.44,51.6 403.34,89.11 412.72,79.73 28.14,-28.15 -952.08,-398.65 -1491.43,-562.8 -698.82,-211.05 -1829.12,-431.49 -2574.84,-497.14 -323.61,-32.83 -590.94,-60.97 -600.33,-70.36 -14.06,-14.06 562.8,-1932.29 647.22,-2157.42 79.73,-211.05 60.97,-304.86 -65.66,-304.86 -65.66,0 -126.63,14.07 -136.02,32.83l0.02 0z"/>
   <path class="fil0 str0" d="M12121.76 7910.23c-37.51,14.07 -28.14,107.88 37.52,314.24 140.7,454.92 600.33,2049.55 600.33,2087.06 0,23.45 -267.33,65.67 -595.64,98.49 -1186.58,112.57 -2687.4,478.38 -3644.16,877.03 -225.11,93.81 -403.34,178.23 -393.95,182.91 9.38,9.38 436.17,-75.04 947.38,-187.6 1139.68,-248.57 3334.62,-539.35 4075.65,-539.35 65.66,0 79.73,-18.76 56.28,-84.42 -42.21,-112.57 -417.41,-1322.59 -651.92,-2096.45 -164.15,-539.35 -215.74,-656.61 -290.78,-665.98 -46.9,-4.7 -112.56,0 -140.69,14.06l-0.02 0.01z"/>
   <path class="fil0 str0" d="M2755.75 9776.88c-79.73,239.19 -60.97,262.65 229.81,262.65 257.96,0 1336.67,225.11 1918.23,403.34 642.54,192.29 1514.88,553.43 1969.82,816.06 309.54,173.54 318.92,178.23 164.15,42.21 -497.14,-431.49 -1679.03,-1074.01 -2448.2,-1327.28 -323.62,-103.18 -1163.14,-304.86 -1589.93,-375.2 -168.84,-28.14 -173.54,-28.14 -243.88,178.23l0 -0.01z"/>
   <path class="fil0 str0" d="M11652.77 9664.31c-834.82,168.84 -1683.72,454.93 -2354.4,792.61 -309.53,154.78 -1186.58,736.34 -1392.94,919.25l-140.7 126.63 150.09 -103.18c323.61,-211.05 1336.66,-665.98 1936.98,-862.97 665.98,-220.44 1547.72,-422.1 2073,-478.38 168.84,-14.06 332.99,-46.9 361.14,-60.97 70.35,-46.9 -51.6,-398.65 -140.7,-412.72 -37.52,-4.69 -257.95,32.83 -492.46,79.73l-0.01 0z"/>
   <path class="fil0 str0" d="M1817.75 11727.93c262.65,445.55 1092.78,1238.16 1758.77,1674.35 792.61,520.59 1575.85,844.2 2551.38,1050.56 741.03,159.46 2021.41,159.46 2762.44,4.7 1374.18,-290.78 2527.93,-891.11 3503.46,-1833.81 417.41,-393.96 881.72,-933.32 881.72,-1008.35 0,-14.07 -65.66,-28.15 -140.69,-28.15 -121.94,0 -229.82,89.11 -694.13,558.12 -1167.82,1181.89 -2246.54,1763.45 -3822.39,2049.55 -586.25,107.87 -1641.51,107.87 -2260.6,0 -1467.97,-262.65 -2602.98,-867.66 -3714.51,-1983.89 -529.98,-534.67 -642.54,-623.77 -764.48,-623.77l-145.39 0 84.42 140.7 0 -0.01z"/>
  </g>
 </g>
</svg>
