<svg width="19" height="14" viewBox="0 0 19 14" fill="none" xmlns="http://www.w3.org/2000/svg">
<path d="M18.117 2.62501C17.9233 2.60264 17.7272 2.6374 17.553 2.72501L13 5.00001V9.00001L17.553 11.275C17.7053 11.3511 17.8744 11.3871 18.0445 11.3795C18.2145 11.3719 18.3799 11.3211 18.5248 11.2317C18.6697 11.1424 18.7894 11.0176 18.8725 10.8691C18.9557 10.7205 18.9996 10.5532 19 10.383V3.61701C18.9997 3.37225 18.9097 3.13609 18.747 2.95327C18.5842 2.77044 18.3601 2.65365 18.117 2.62501Z" fill="#48887B"/>
<path d="M3 0C1.355 0 0 1.355 0 3V11C0 12.645 1.355 14 3 14H11C12.645 14 14 12.645 14 11V3C14 1.355 12.645 0 11 0H3Z" fill="#48887B"/>
</svg>
