<?xml version="1.0" encoding="UTF-8"?>
<!DOCTYPE svg PUBLIC "-//W3C//DTD SVG 1.1//EN" "http://www.w3.org/Graphics/SVG/1.1/DTD/svg11.dtd">
<!-- Creator: CorelDRAW -->
<svg xmlns="http://www.w3.org/2000/svg" xml:space="preserve" width="450mm" height="150mm" version="1.1" style="shape-rendering:geometricPrecision; text-rendering:geometricPrecision; image-rendering:optimizeQuality; fill-rule:evenodd; clip-rule:evenodd"
viewBox="0 0 45000 15000"
 xmlns:xlink="http://www.w3.org/1999/xlink"
 xmlns:xodm="http://www.corel.com/coreldraw/odm/2003">
 <defs>
  <style type="text/css">
   <![CDATA[
    .fil0 {fill:#FEFEFE;fill-rule:nonzero}
   ]]>
  </style>
 </defs>
 <g id="Слой_x0020_1">
  <metadata id="CorelCorpID_0Corel-Layer"/>
  <g id="_1887236121408">
   <path class="fil0" d="M38672.33 8776.16c0,-147.98 -53.44,-275.42 -160.32,-382.3 -106.88,-106.88 -234.32,-160.32 -382.3,-160.32 -197.32,0 -439.86,41.11 -727.61,123.32 -287.76,82.22 -456.3,123.33 -505.63,123.33 -197.31,0 -337.08,-65.77 -419.3,-197.32 -82.21,-131.54 -147.98,-402.86 -197.31,-813.93 -115.11,295.97 -217.87,526.18 -308.31,690.61 -90.44,164.43 -168.54,304.19 -234.32,419.3 -65.77,115.1 -115.1,234.31 -147.98,357.63 -32.89,123.33 -49.33,291.87 -49.33,505.63 0,263.09 90.43,468.63 271.31,616.62 82.21,82.21 197.32,123.32 345.3,123.32l739.94 -197.32c147.99,0 238.43,53.44 271.31,160.32 32.89,106.88 49.33,226.09 49.33,357.64 0,49.33 -65.77,197.32 -197.31,443.96 -131.55,246.65 -197.32,509.74 -197.32,789.27 0,115.1 16.44,246.65 49.33,394.64 32.88,147.98 73.99,312.42 123.32,493.29 98.66,230.2 304.2,411.08 616.62,542.62 312.42,131.55 813.93,197.32 1504.54,197.32 690.61,0 1241.46,-12.33 1652.53,-37 411.08,-24.66 731.72,-53.44 961.92,-86.32 230.21,-32.89 394.64,-69.89 493.3,-111 98.66,-41.1 197.31,-78.1 295.97,-110.99 756.39,-295.97 1294.9,-628.95 1615.54,-998.91 320.64,-369.97 480.96,-694.73 480.96,-974.26 -739.94,197.32 -1479.88,369.97 -2219.82,517.96 -739.94,147.99 -1488.1,221.98 -2244.48,221.98l-813.94 0c-131.54,0 -263.09,0 -394.63,0 -115.1,0 -238.43,-8.22 -369.97,-24.66 -443.96,-98.66 -665.95,-312.42 -665.95,-641.28 0,-230.21 90.44,-485.08 271.31,-764.61l493.3 -1578.54z"/>
   <path class="fil0" d="M30730.31 6457.69c0,147.98 53.44,275.42 160.33,382.3 106.88,106.88 242.53,160.32 406.96,160.32 164.43,0 300.09,-53.44 406.97,-160.32 106.88,-106.88 160.32,-234.32 160.32,-382.3 0,-147.99 -53.44,-275.43 -160.32,-382.31 -106.88,-106.88 -242.54,-160.32 -406.97,-160.32 -164.43,0 -300.08,53.44 -406.96,160.32 -106.89,106.88 -160.33,234.32 -160.33,382.31z"/>
   <path class="fil0" d="M30286.35 10453.36l0 369.97c0,887.93 135.66,1508.65 406.97,1862.18 271.31,353.53 776.93,530.29 1516.87,530.29 378.2,0 760.5,-37 1146.91,-110.99 386.41,-73.99 744.05,-201.43 1072.91,-382.3 147.99,-82.22 287.76,-217.87 419.3,-406.97 131.55,-189.09 254.87,-579.62 369.97,-1171.57 -180.87,98.66 -398.74,189.1 -653.61,271.31 -254.87,82.22 -522.07,156.21 -801.6,221.98 -279.54,65.78 -554.96,115.1 -826.27,147.99 -271.31,32.89 -513.85,49.33 -727.61,49.33 -361.74,0 -612.5,-78.1 -752.27,-234.31 -139.76,-156.21 -209.65,-398.75 -209.65,-727.61 0,-328.86 12.33,-731.72 37,-1208.57 24.66,-476.85 53.44,-1035.91 86.33,-1677.2 -246.65,-197.31 -493.3,-295.97 -739.94,-295.97l-345.31 2762.44z"/>
   <path class="fil0" d="M26734.64 9318.79c115.1,0 238.43,-24.67 369.97,-74 65.77,-65.77 98.66,-172.65 98.66,-320.64l0 -73.99c0,-115.1 -32.89,-205.54 -98.66,-271.31 -131.54,-131.55 -254.87,-197.32 -369.97,-197.32 -98.66,0 -197.31,65.77 -295.97,197.32 -98.66,98.66 -156.21,197.31 -172.66,295.97 16.45,65.77 41.11,127.44 74,184.99 32.88,57.55 65.77,119.21 98.66,184.98 98.66,49.33 197.31,74 295.97,74z"/>
   <path class="fil0" d="M20790.46 217.53l-912.59 2145.82 0 10309.83c0,164.43 65.77,246.64 197.32,246.64 115.1,0 221.98,-82.21 320.64,-246.64 98.66,-164.43 193.2,-357.64 283.64,-579.62 90.44,-221.98 164.43,-431.63 221.98,-628.95 57.55,-197.32 110.99,-337.08 160.32,-419.3 279.54,-690.61 612.51,-1216.79 998.92,-1578.54 386.41,-361.74 735.83,-559.06 1048.25,-591.95 82.21,131.55 123.32,254.87 123.32,369.97 0,164.43 -69.88,332.97 -209.65,505.63 -139.76,172.65 -324.75,365.86 -554.95,579.62 -493.3,443.96 -871.49,690.61 -1134.58,739.94 164.44,690.61 448.08,1192.12 850.93,1504.54 402.86,312.42 826.27,468.63 1270.23,468.63 295.98,0 661.84,-8.22 1097.58,-24.67 435.74,-16.44 892.04,-49.33 1368.89,-98.66 476.85,-49.32 949.59,-123.32 1418.22,-221.98 468.62,-98.66 892.03,-234.31 1270.23,-406.96 378.19,-172.66 682.38,-386.42 912.59,-641.28 230.2,-254.87 345.3,-554.96 345.3,-900.26 0,-312.42 -65.77,-657.73 -197.31,-1035.92 -131.55,-378.19 -197.32,-707.05 -197.32,-986.59 0,-213.76 32.88,-419.29 98.66,-616.61 -559.07,493.29 -838.6,986.58 -838.6,1479.88l369.97 1257.89c0,180.88 -172.65,320.64 -517.96,419.3 -345.3,98.66 -752.27,176.77 -1220.9,234.32 -468.63,57.55 -949.59,94.55 -1442.88,110.99 -493.29,16.44 -879.71,24.66 -1159.24,24.66l-1751.19 0c-345.3,0 -517.96,-90.43 -517.96,-271.31 0,-65.77 65.78,-164.43 197.32,-295.97 131.54,-131.55 283.64,-267.2 456.3,-406.97 172.65,-139.77 337.08,-271.31 493.29,-394.63 156.21,-123.33 267.2,-226.1 332.97,-308.31 427.52,-476.85 641.28,-920.82 641.28,-1331.89 0,-230.21 -69.88,-419.3 -209.65,-567.29 -139.76,-147.99 -332.97,-221.98 -579.62,-221.98 -295.97,0 -616.61,123.32 -961.92,369.97 -345.3,246.64 -670.05,517.95 -974.25,813.93 -304.2,295.98 -571.4,567.29 -801.6,813.93 -230.21,246.65 -369.97,369.97 -419.3,369.97l1307.22 -9421.89 -1183.9 -567.29z"/>
   <path class="fil0" d="M12873.11 8677.51c-887.93,197.31 -1636.09,723.49 -2244.49,1578.53 -411.07,559.07 -616.61,1159.24 -616.61,1800.52 0,443.97 94.54,764.61 283.64,961.92 189.1,197.32 456.3,295.98 801.6,295.98 509.74,0 920.81,-131.55 1233.23,-394.64 213.76,-164.43 419.3,-332.97 616.62,-505.62 197.32,-172.65 386.41,-365.86 567.29,-579.62 65.77,427.52 135.65,752.27 209.65,974.25 73.99,221.99 176.76,390.53 308.3,505.63 131.55,115.1 295.98,180.87 493.3,197.32 197.31,16.44 452.18,24.66 764.6,24.66 509.74,0 1011.25,-32.89 1504.55,-98.66 493.29,-65.77 924.92,-184.98 1294.89,-357.63 369.97,-172.66 670.06,-419.3 900.26,-739.94 230.2,-320.64 345.3,-744.05 345.3,-1270.23 -279.53,131.54 -575.5,258.97 -887.92,382.3 -312.42,123.32 -620.73,234.31 -924.93,332.97 -304.19,98.66 -591.95,180.88 -863.26,246.65 -271.31,65.77 -505.63,98.66 -702.94,98.66 -213.76,0 -398.75,-8.23 -554.96,-24.67 -156.21,-16.44 -283.64,-73.99 -382.3,-172.65 -98.66,-98.66 -172.65,-250.76 -221.98,-456.3 -49.33,-205.54 -74,-505.62 -74,-900.26 0,0 0,-8.22 0,-24.66 0,-32.89 8.23,-86.33 24.67,-160.32 16.44,-74 41.11,-189.1 73.99,-345.31 32.89,-156.21 74,-365.86 123.33,-628.95l-98.66 -641.28 -1085.25 764.61c0,-575.51 -295.97,-863.26 -887.92,-863.26z"/>
   <path class="fil0" d="M1552.04 1771.4c-164.43,213.76 -320.64,468.63 -468.63,764.61 -147.99,295.97 -221.98,633.06 -221.98,1011.25 0,230.2 36.99,443.96 110.99,641.28 73.99,197.32 152.1,386.41 234.31,567.29l172.65 419.29c230.21,-460.4 587.84,-830.37 1072.92,-1109.9 485.07,-279.54 941.36,-419.3 1368.88,-419.3 213.76,0 443.97,28.77 690.61,86.32 246.65,57.55 493.3,176.77 739.94,357.64l-4513.63 8731.29c147.99,98.65 398.75,193.2 752.27,283.64 353.53,90.44 760.5,172.65 1220.9,246.65 460.41,73.99 945.48,135.65 1455.22,184.98 509.74,49.33 986.59,74 1430.55,74 411.08,0 834.49,-16.45 1270.23,-49.33 435.74,-32.89 834.49,-123.33 1196.23,-271.32 361.75,-147.98 657.73,-374.08 887.93,-678.27 230.2,-304.2 345.31,-727.61 345.31,-1270.23 0,-295.98 -41.11,-616.62 -123.33,-961.92 -82.21,-345.31 -213.76,-600.18 -394.63,-764.61 -82.22,263.09 -209.65,485.07 -382.3,665.95 -172.66,180.87 -361.75,324.75 -567.29,431.63 -205.54,106.88 -419.3,184.98 -641.28,234.31 -221.98,49.33 -423.41,74 -604.28,74 -147.99,0 -353.53,-12.34 -616.62,-37 -263.09,-24.66 -522.07,-57.55 -776.94,-98.66 -254.87,-41.11 -476.85,-82.21 -665.94,-123.32 -189.1,-41.11 -291.87,-78.11 -308.31,-110.99l4464.3 -8509.31c-443.96,-197.31 -1031.8,-423.41 -1763.52,-678.27 -731.72,-254.87 -1525.1,-382.31 -2380.14,-382.31 -493.29,0 -949.59,57.55 -1368.89,172.66 -419.3,115.1 -826.26,238.42 -1220.9,369.97l-394.63 147.98z"/>
   <path class="fil0" d="M11935.85 11883.91c-98.66,32.89 -189.1,49.33 -271.31,49.33 -131.55,0 -213.76,-65.77 -246.65,-197.32 0,-180.87 57.55,-374.08 172.65,-579.62 115.11,-205.54 250.76,-398.74 406.97,-579.62 156.21,-180.87 328.86,-337.08 517.96,-468.63 189.09,-131.54 357.64,-213.76 505.62,-246.64 197.32,-82.22 353.53,-123.32 468.63,-123.32 180.88,0 271.31,90.43 271.31,271.31 0,164.43 -73.99,353.52 -221.98,567.28 -575.51,690.61 -1109.91,1126.36 -1603.2,1307.23z"/>
  </g>
 </g>
</svg>
